<!-- <svg xmlns="http://www.w3.org/2000/svg" viewBox="0 0 1440 320">
  <path fill="#0099ff" fill-opacity="1" d="M0,160L40,186.7C80,213,160,267,240,240C320,213,400,107,480,96C560,85,640,171,720,176C800,181,880,107,960,106.7C1040,107,1120,181,1200,229.3C1280,277,1360,299,1400,309.3L1440,320L1440,0L1400,0C1360,0,1280,0,1200,0C1120,0,1040,0,960,0C880,0,800,0,720,0C640,0,560,0,480,0C400,0,320,0,240,0C160,0,80,0,40,0L0,0Z"></path>
</svg> -->
<svg xmlns="http://www.w3.org/2000/svg" viewBox="0 0 1440 320">
  <path fill="#0099ff" fill-opacity="1" d="M0,96L6.2,122.7C12.3,149,25,203,37,229.3C49.2,256,62,256,74,234.7C86.2,213,98,171,111,170.7C123.1,171,135,213,148,213.3C160,213,172,171,185,144C196.9,117,209,107,222,133.3C233.8,160,246,224,258,224C270.8,224,283,160,295,133.3C307.7,107,320,117,332,101.3C344.6,85,357,43,369,48C381.5,53,394,107,406,112C418.5,117,431,75,443,96C455.4,117,468,203,480,218.7C492.3,235,505,181,517,186.7C529.2,192,542,256,554,250.7C566.2,245,578,171,591,144C603.1,117,615,139,628,165.3C640,192,652,224,665,213.3C676.9,203,689,149,702,154.7C713.8,160,726,224,738,245.3C750.8,267,763,245,775,208C787.7,171,800,117,812,112C824.6,107,837,149,849,170.7C861.5,192,874,192,886,208C898.5,224,911,256,923,250.7C935.4,245,948,203,960,186.7C972.3,171,985,181,997,208C1009.2,235,1022,277,1034,261.3C1046.2,245,1058,171,1071,144C1083.1,117,1095,139,1108,144C1120,149,1132,139,1145,122.7C1156.9,107,1169,85,1182,74.7C1193.8,64,1206,64,1218,106.7C1230.8,149,1243,235,1255,250.7C1267.7,267,1280,213,1292,197.3C1304.6,181,1317,203,1329,181.3C1341.5,160,1354,96,1366,106.7C1378.5,117,1391,203,1403,234.7C1415.4,267,1428,245,1434,234.7L1440,224L1440,0L1433.8,0C1427.7,0,1415,0,1403,0C1390.8,0,1378,0,1366,0C1353.8,0,1342,0,1329,0C1316.9,0,1305,0,1292,0C1280,0,1268,0,1255,0C1243.1,0,1231,0,1218,0C1206.2,0,1194,0,1182,0C1169.2,0,1157,0,1145,0C1132.3,0,1120,0,1108,0C1095.4,0,1083,0,1071,0C1058.5,0,1046,0,1034,0C1021.5,0,1009,0,997,0C984.6,0,972,0,960,0C947.7,0,935,0,923,0C910.8,0,898,0,886,0C873.8,0,862,0,849,0C836.9,0,825,0,812,0C800,0,788,0,775,0C763.1,0,751,0,738,0C726.2,0,714,0,702,0C689.2,0,677,0,665,0C652.3,0,640,0,628,0C615.4,0,603,0,591,0C578.5,0,566,0,554,0C541.5,0,529,0,517,0C504.6,0,492,0,480,0C467.7,0,455,0,443,0C430.8,0,418,0,406,0C393.8,0,382,0,369,0C356.9,0,345,0,332,0C320,0,308,0,295,0C283.1,0,271,0,258,0C246.2,0,234,0,222,0C209.2,0,197,0,185,0C172.3,0,160,0,148,0C135.4,0,123,0,111,0C98.5,0,86,0,74,0C61.5,0,49,0,37,0C24.6,0,12,0,6,0L0,0Z"></path>
</svg>